<svg xmlns="http://www.w3.org/2000/svg" width="416" height="446" fill="none" style="background: rgba(18,18,18,0.00);"><defs><mask id="Mask-1"><path fill="#fff" d="M207.1 105.8c-69.4 14.1-128.6 44.7-182.2 76.1c-0.6 .3-1 1.1-0.9 1.8c.2 .7 .7 1.3 1.4 1.5c.5 .1 1 0 1.4-0.2c21.5-11.4 44.8-18.3 67.5-27c18.7-6.9 78.7-22.4 106.2-27.6c59.5-11.5 132-14.1 162.8-7.1c26.2 6 36.2 10 43.8 20.4c2.3 3.6 1.5 8.5-1 11.9c-13.6 17.1-56.8 19.9-78 21.9c-34 3.7-67.1 6.9-100.2 19.3c-1.6 .6-4.8 1.9-6.4 2.7c-9 4.1-18 9-25 16.1c-13.5 13.5-20.5 35.2-11.9 53.3c4.4 9.6 13.3 14.8 22.9 19.8c11.3 6 31.7 11.6 48.5 14.8c.4 .1 .8 0 1.2-0.2c.6-0.3 .9-0.9 .9-1.6c0-0.6-0.4-1.2-0.9-1.6c-14-7.8-32.8-19.4-41.2-25.4c-7.6-5.5-13.7-11.1-11.7-21.3c1.6-8.9 8.5-16.4 16.6-20.3c3.1-1.3 6.4-2.7 9.6-3.9c16.9-5.8 34.9-7.9 53-9.8c21.9-2.3 44.9-3.9 67.1-6.7c30.9-4.5 75.3-15.9 86.6-49.3c4-12.4 2.1-26.9-6-37.4c-17.7-23.1-71-31.5-112.7-31.5c-37.4 0-74.8 3.8-111.4 11.2Z" fill-rule="evenodd"></path></mask></defs><style>@keyframes a1_t { 0% { transform: translate(249.1px,206.9px); } 48.485% { transform: translate(249.1px,206.9px); animation-timing-function: cubic-bezier(.1,.6,.1,1); } 51.515% { transform: translate(201px,242px); animation-timing-function: cubic-bezier(.1,.6,.1,1); } 100% { transform: translate(233px,253.4px); } }@keyframes a0_t { 0% { transform: scale(.5,.5) translate(13.7px,-12.3px); } 48.485% { transform: scale(.5,.5) translate(13.7px,-12.3px); animation-timing-function: cubic-bezier(.1,.6,.1,1); } 100% { transform: scale(.6,.6) translate(0px,0px); } }@keyframes a0_o { 0% { opacity: 0; } 48.485% { opacity: 0; animation-timing-function: cubic-bezier(.1,.6,.1,1); } 51.515% { opacity: 1; } 100% { opacity: 1; } }@keyframes a2_t { 0% { transform: translate(428.3px,109.3px) rotate(-16deg) scale(.8,.8) translate(-1817.9px,-798.1px); } 45.455% { transform: translate(428.3px,109.3px) rotate(-16deg) scale(.8,.8) translate(-1817.9px,-798.1px); } 54.545% { transform: translate(252.9px,168.4px) rotate(-16deg) scale(1,1) translate(-1817.9px,-798.1px); } 100% { transform: translate(252.9px,168.4px) rotate(-16deg) scale(1,1) translate(-1817.9px,-798.1px); } }@keyframes a2_o { 0% { opacity: 0; } 45.455% { opacity: 0; animation-timing-function: cubic-bezier(.8,0,.9,.6); } 48.485% { opacity: 1; } 100% { opacity: 1; } }@keyframes a3_t { 0% { transform: translate(-3.1px,191.1px) rotate(-18deg) scale(-0.1,-0.1) translate(-24.2px,0px); } 30.303% { transform: translate(-3.1px,191.1px) rotate(-18deg) scale(-0.1,-0.1) translate(-24.2px,0px); animation-timing-function: cubic-bezier(.8,0,.9,.6); } 45.455% { transform: translate(45.4px,155.3px) rotate(-18deg) scale(1,1) translate(168.8px,22.8px); } 100% { transform: translate(45.4px,155.3px) rotate(-18deg) scale(1,1) translate(168.8px,22.8px); } }@keyframes a3_o { 0% { opacity: 0; } 30.303% { opacity: 0; animation-timing-function: cubic-bezier(.8,0,.9,.6); } 33.333% { opacity: 1; } 100% { opacity: 1; } }@keyframes a4_t { 0% { transform: translate(209.6px,223.1px) rotate(-5deg) translate(-209.6px,-223.1px); } 63.636% { transform: translate(209.6px,223.1px) rotate(-5deg) translate(-209.6px,-223.1px); animation-timing-function: cubic-bezier(.2,.8,.4,1); } 87.879% { transform: translate(209.6px,223.1px) rotate(0deg) translate(-209.6px,-223.1px); } 100% { transform: translate(209.6px,223.1px) rotate(0deg) translate(-209.6px,-223.1px); } }@keyframes a4_o { 0% { opacity: 0; } 63.636% { opacity: 0; animation-timing-function: cubic-bezier(.6,.3,.9,.6); } 87.879% { opacity: 1; } 100% { opacity: 1; } }</style><g mask="url(#Mask-1)" transform="translate(-23.8,39.4)"><g style="animation: 3.3s linear both a1_t;"><ellipse rx="117.2" ry="105.3" fill="#fff" opacity="0" transform="translate(249.1,206.9) scale(.5,.5) translate(13.7,-12.3)" style="animation: 3.3s linear both a0_t, 3.3s linear both a0_o;"></ellipse></g><path fill="#fff" opacity="0" d="M2064.2 877.1c-18.9 58-114.4 75.3-231.5 37.3c-105.6-34.3-154.8-39.5-154.8-78.4c0-39 136.8-64.1 247.8-64.1c111 0 153.6 58.7 138.5 105.2Z" transform="translate(428.3,109.3) rotate(-16) scale(.8,.8) translate(-1817.9,-798.1)" style="animation: 3.3s linear both a2_t, 3.3s linear both a2_o;"></path><path fill="#fff" opacity="0" d="M185.2 41.1c-18.9 58-102.1 31-219.2-7.1c-105.5-34.3-167 4.9-167-34c0-38.9 90-70.5 201-70.5c111 0 200.3 65.1 185.2 111.6Z" transform="translate(-3.1,191.1) rotate(-18) scale(-0.1,-0.1) translate(-24.2,0)" style="animation: 3.3s linear both a3_t, 3.3s linear both a3_o;"></path></g><path d="M209.8 394.4c-92.7 0-168.6-74-171.5-166.1c0-0.4-0.2-0.9-0.6-1.2c-0.4-0.2-0.9-0.3-1.4-0.1c-0.6 .2-1 .8-1 1.4c3 93.7 80.1 169 174.5 169c84.7 0 155.5-60.6 171.4-140.7c0-0.5-0.2-1.1-0.6-1.4c-0.4-0.3-0.9-0.4-1.4-0.2c-0.5 .2-0.8 .6-0.9 1c-15.7 78.8-85.2 138.3-168.5 138.3Zm0-343.2c54.9 0 106.5 26.3 138.8 70.8c.2 .3 .5 .5 .9 .5c.6 .1 1.2-0.1 1.6-0.6c.3-0.6 .2-1.2-0.1-1.7c-32.8-45.2-85.3-72-141.2-72c-80.8 0-148.9 55.1-168.7 129.7c-0.2 .4-0.1 .9 .2 1.2c.2 .4 .6 .6 1 .6c.5 .1 1-0.1 1.3-0.5c.2-0.1 .3-0.3 .3-0.5c19.6-73.3 86.6-127.5 165.9-127.5Zm-170 75l-10.9 .5l-0.2 .2l-2 3.8l8.4 4.4l-2.1 4l-23.4-12.4l4.1-7.7c2.7-5.2 7.2-6.8 11.9-4.3c3.4 1.8 5 4.8 4.5 8.2l12-1l-2.3 4.3Zm-16.4 2.8l2-3.8c.8-1.1 .9-2.4 .6-3.7c-0.4-1.2-1.4-2.2-2.6-2.7c-2.6-1.5-5-0.7-6.4 2l-2 3.7l8.4 4.5Zm23.8-26.1l-6.4 9.1l4.1 5.6l-2.6 3.8l-16.2-23.1l3.4-4.8l27.2 7.2l-2.8 4.1l-6.7-1.9Zm-3.5-1l-12.5-3.6l-0.2 .2l7.7 10.6l5-7.2Zm-4.1-22l3.8-4l18.8 7.4l.1-0.1l-8.3-18.5l3.7-4l19.7 17.7l-3 3.2l-14.4-13l-0.3 .2l7.7 17.2l-2.4 2.5l-17.5-6.8l-0.2 .2l13.8 13.8l-2.9 3l-18.6-18.8Zm33-14.8c-5.3-6.9-4.8-13.6 1.4-18.4c6.5-5 13.2-3.9 18.5 3c5.4 6.9 4.7 13.7-1.7 18.6c-6.3 4.9-12.9 3.7-18.2-3.2Zm16.3-12.5c-3.9-5-8.3-6-12.5-2.8c-4 3.1-4.1 7.5-0.2 12.5c3.9 5 8.2 6 12.2 3c4.1-3.2 4.3-7.8 .5-12.7Zm13.4 5.2l-1-3.9c2.4 0 4.9-0.7 7-2c2.5-1.5 3.6-3.6 2.4-5.7c-1.3-2.2-3.9-1.9-6.9-1.6c-3.7 .3-8.1 .7-10.4-3.2c-2.4-3.9-0.4-8 4-10.5c2.1-1.3 4.5-2.1 7.1-2.3l1 3.7c-2.2 .2-4.2 .8-6.1 1.8c-2.2 1.3-3.1 3.2-2 5c1.2 2 3.9 1.8 6.9 1.6c3.7-0.4 8.1-0.9 10.4 3.2c2.3 3.8 .7 8.2-4.3 11.1c-2.5 1.5-5.2 2.5-8.1 2.8Zm20.5-24.9c-3.3-8.2-1-14.4 6.3-17.3c2.5-1.2 5.3-1.5 8-0.9l-0.2 3.7c-2.1-0.3-4.2-0.1-6.2 .7c-4.7 1.9-6 6.2-3.7 12.1c2.4 6 6.1 8 11.1 6c2.1-0.8 4-2.3 5.3-4.2l2.7 2.6c-1.7 2.4-4.1 4.3-6.8 5.4c-7.3 2.9-13.2 0-16.5-8.1Zm24.9-6.6l-4-15.6l4.3-1.1l4.1 15.8c1.1 4.1 3.7 5.9 7.5 4.9c3.7-1 5.2-3.8 4.1-8l-4.1-15.8l4.3-1.1l4.1 15.6c1.7 6.7-1 11.4-7.4 13c-6.5 1.7-11.1-1-12.9-7.7Zm26.9 2.7l.6-4c2.3 .9 4.8 1.2 7.2 .9c2.8-0.4 4.8-1.9 4.5-4.3c-0.4-2.5-2.9-3.3-5.8-4.2c-3.6-1.1-7.8-2.5-8.4-7c-0.6-4.5 2.8-7.4 7.8-8.1c2.5-0.4 5-0.2 7.4 .6l-0.5 3.8c-2-0.7-4.2-0.9-6.3-0.7c-2.6 .4-4.1 1.7-3.8 3.8c.3 2.4 2.9 3.2 5.7 4.2c3.6 1.1 7.8 2.3 8.4 7c.6 4.4-2.6 7.8-8.3 8.6c-2.9 .4-5.7 .2-8.5-0.6Zm26.2-24.2l-7.9 .2l-0.1-3.7l20.2-0.6l.1 3.7l-7.9 .2l.7 22.8l-4.4 .1l-0.7-22.7Zm15.3 9.1c.7-8.7 5.7-13.2 13.5-12.5c8.2 .7 12.3 6 11.5 14.7c-0.7 8.7-5.8 13.2-13.9 12.5c-7.9-0.7-11.9-6.1-11.1-14.7Zm20.4 1.8c.6-6.3-2-10-7.2-10.4c-5-0.5-8.1 2.7-8.7 9c-0.5 6.2 1.9 10 6.9 10.4c5.3 .4 8.5-2.8 9-9Zm14.9-11.3l5.4 1.4l2.7 20h.3l12-16.3l5.3 1.3l-5.8 25.9l-4.3-1.1l4.3-19l-0.3-0.1l-11.2 15.1l-3.4-0.8l-2.7-18.6l-0.3-0.1l-5.3 18.7l-4-1l7.3-25.4Zm36.6 24.5c3.7-8 9.9-10.5 17-7.2c2.5 1.1 4.6 3 6.1 5.4l-2.6 2.4c-1.3-1.8-3-3.2-5-4.2c-4.7-2.1-8.7-0.2-11.4 5.6c-2.7 5.8-1.6 10 3.1 12.2c1.8 .8 3.8 1.2 5.8 1l4-8.5l3.8 1.8l-5 10.5c-3.6 .7-7.3 .2-10.5-1.4c-7.1-3.3-9-9.7-5.3-17.6Zm24.6 15.3l8.8-13.6l3.7 2.4l-8.8 13.8c-2.4 3.6-1.8 6.7 1.4 8.8c3.3 2.1 6.3 1.3 8.7-2.3l8.8-13.8l3.8 2.5l-8.8 13.6c-3.8 5.7-9 7-14.6 3.3c-5.6-3.6-6.7-8.9-3-14.7Zm33.1 3.1l3.5 2.8l-16.4 20.8l-3.5-2.8l16.4-20.8Zm11.2 14.3l-5.7-5.3l2.5-2.8l14.8 13.8l-2.5 2.7l-5.8-5.4l-15.5 16.7l-3.3-3l15.5-16.7Zm9.2 33.1l-7.2-8.4l-6.5 2.6l-3-3.5l26.4-10l3.8 4.4l-13.7 24.6l-3.2-3.7l3.4-6Zm1.8-3.1l6.6-11.3l-0.2-0.2l-12.1 4.9l5.7 6.6Zm7.9 27.7l4.7-9.9l-0.1-0.2l-2.4-3.6l-7.8 5.3l-2.5-3.7l22-14.8l4.9 7.3c3.2 4.9 2.5 9.6-1.9 12.5c-3.2 2.2-6.6 2.2-9.4 .1l-4.8 11l-2.7-4Zm5.3-15.7l2.4 3.5c1.6 2.5 4.1 3 6.6 1.3c2.5-1.7 3-4.2 1.3-6.6l-2.4-3.6l-7.9 5.4Zm-0.6 20.7l3.9-0.7c-0.1 2.4 .5 4.9 1.6 7c1.3 2.6 3.4 3.9 5.5 2.8c2.3-1.2 2.1-3.8 2-6.8c-0.1-3.8-0.3-8.2 3.8-10.3c4-2.1 8 .1 10.2 4.5c1.2 2.3 1.9 4.7 2 7.3l-3.8 .8c0-2.2-0.5-4.3-1.4-6.2c-1.2-2.3-3-3.3-4.9-2.3c-2.1 1.1-2 3.8-2 6.8c.2 3.7 .4 8.1-3.7 10.2c-4 2-8.3 .3-11-4.9c-1.3-2.5-2.1-5.3-2.2-8.2Zm-350.3 186.1l1.4 2.6l-8.9 4.8l5.7 10.5l8.9-4.8l1.4 2.5l-20.2 11l-1.4-2.6l9.1-5l-5.7-10.5l-9.1 5l-1.5-2.5l20.3-11Zm5.9 41.4l-5.9-8.4l-6.6 1.8l-1.7-2.5l23.8-6.3l2.2 3.2l-13.9 20.3l-1.8-2.6l3.9-5.5Zm1.4-2l7.1-10.1l-0.1-0.2l-12 3.3l5 7Zm18.3 .3l2.3 2.6l-6.1 20.7l.2 .1l13.6-12.3l2 2.1l-17.1 15.5l-2.2-2.5l6.2-20.9l-0.2-0.1l-13.8 12.4l-2-2.1l17.1-15.5Zm17.5 18.6l5.9 5c5.3 4.6 5.6 10.3 .8 15.8c-4.8 5.6-10.5 6.3-15.8 1.7l-5.9-5l15-17.5Zm-7.6 20.5c3.9 3.4 8.2 2.8 12-1.6c3.7-4.4 3.6-8.7-0.3-12.1l-3.5-3l-11.8 13.7l3.6 3Zm26.8-4.5l3.3 2.1l-3.7 19.2l.2 .1l16-11.2l3.1 2l-11.9 19.7l-2.4-1.6l9.6-15.9l-0.2-0.1l-15.3 10.7l-2.2-1.3l3.5-18.4l-0.2-0.1l-10.6 15.3l-2.3-1.4l13.1-19.1Zm30 36.2l-9.2-4.4l-4.8 4.8l-2.8-1.3l17.6-17.2l3.5 1.6l-2 24.5l-2.9-1.4l.6-6.6Zm.3-2.5l1.1-12.3l-0.1-0.1l-8.8 8.8l7.8 3.6Zm16.1-8.7l7.4 2.4c6.6 2.2 9 7.4 6.7 14.3c-2.3 7-7.3 9.8-14 7.6l-7.3-2.5l7.2-21.8Zm.7 21.8c4.9 1.7 8.7-0.5 10.5-6c1.9-5.5 .1-9.5-4.8-11.1l-4.4-1.4l-5.6 17.1l4.3 1.4Zm32.1 8.3l-0.5 2.5l-13.1-2.8l4.7-22.5l12.8 2.6l-0.5 2.5l-10-2.1l-1.5 7.5l8.6 1.8l-0.5 2.5l-8.6-1.8l-1.7 7.7l10.3 2.1Zm35.7-17.4h3l-0.4 23h-3l.4-23Zm10.9 0l3.4-0.2l12.8 17.3h.2l-1.6-18.3l3-0.3l2 23l-3.3 .3l-13-17.6h-0.2l1.6 18.6l-2.9 .2l-2-23Zm28 19.1l.3-2.7c1.9 .7 3.9 .8 5.9 .4c2.7-0.5 4.6-2.2 4.1-4.6c-0.5-2.4-2.9-3.1-5.6-3.8c-3.1-0.8-6.6-1.8-7.3-5.5c-0.8-3.8 1.7-6.4 5.8-7.2c1.9-0.4 4-0.3 5.9 .1l-0.2 2.7c-1.6-0.5-3.4-0.6-5.1-0.3c-2.5 .5-3.9 2-3.5 4.1c.5 2.3 2.9 3 5.6 3.7c3.1 .8 6.6 1.7 7.3 5.5c.8 3.8-1.7 6.8-6.4 7.8c-2.2 .4-4.6 .4-6.8-0.2Zm20.2-24.6l-6.9 2.1l-0.7-2.4l16.6-5l.7 2.4l-6.9 2l5.9 19.7l-2.8 .9l-5.9-19.7Zm34.1 9.4l-8.2-6h-0.2l-4.1 1.8l3.3 8l-2.7 1.1l-8.8-21.3l6.8-2.8c4.4-1.8 8-0.4 9.8 3.7c1.3 3.2 .7 6.1-1.8 8.1l8.8 6.2l-2.9 1.2Zm-13.5-6.6l4.1-1.7c2.7-1.1 3.6-3.3 2.5-6c-1.2-2.7-3.4-3.7-6-2.6l-4.2 1.7l3.6 8.6Zm18.5-5.5l-6.8-12.4l2.5-1.4l7 12.5c2 3.6 5 4.7 8.2 2.9c3.3-1.9 4-4.9 2-8.6l-6.9-12.5l2.6-1.4l6.9 12.4c2.8 5.2 1.7 9.6-3.3 12.3c-4.9 2.8-9.3 1.4-12.2-3.8Zm14.7-24.7l3.1-2.3l16.6 10.1l.2-0.1l-4.9-18.9l3-2.3l14.3 18.1l-2.3 1.8l-11.5-14.6l-0.2 .1l4.7 18.2l-2 1.5l-16-9.7l-0.2 .1l10.7 15.3l-2.2 1.6l-13.3-18.9Zm47.7-13.3l1.7 1.8l-9.6 9.3l-16-16.6l9.4-9.1l1.7 1.8l-7.3 7.1l5.3 5.5l6.4-6.2l1.7 1.8l-6.3 6.2l5.4 5.6l7.6-7.2Zm-9.7-19.7l2.2-2.6l21.3 3l.2-0.2l-14.2-11.7l1.8-2.2l17.8 14.6l-2.1 2.6l-21.6-3l-0.1 .1l14.3 11.9l-1.8 2.2l-17.8-14.7Zm20.1-22.1l-4 6l-2.1-1.3l9.5-14.6l2.1 1.4l-4 6l17.2 11.3l-1.6 2.4l-17.1-11.1Zm24.3-2.3l-1.9-1.9c1.7-1.1 3.1-2.6 4-4.3c1.3-2.5 1.2-5-1-6.2c-2.1-1.1-4.2 .4-6.4 2c-2.6 1.9-5.5 4-8.9 2.3c-3.4-1.7-3.9-5.3-1.9-9c.9-1.8 2.2-3.3 3.8-4.5l1.9 1.7c-1.4 1-2.6 2.3-3.4 3.9c-1.2 2.2-0.9 4.2 1 5.2c2.1 1.1 4.2-0.4 6.4-2c2.6-1.9 5.4-4 8.9-2.2c3.4 1.8 4.2 5.7 2 9.9c-1.1 2-2.6 3.8-4.5 5.1Z" fill="#fff" opacity="0" transform="translate(209.6,223.1) rotate(-5) translate(-209.6,-223.1)" style="animation: 3.3s linear both a4_t, 3.3s linear both a4_o;"></path></svg>